#!OML:ASF E:\CV Data\Top Level 1\Subject 1\Session 1\player.ASF
:FULLY-SPECIFIED
:DEGREES
463
root 1.67656 15.6704 8.2112 -155.566 -198.199 169.387
lowerback 36.3586 7.61869 2.92181
upperback 4.22916 10.7156 0.304463
thorax -12.8239 4.61096 -5.64979
lowerneck -0.983544 -15.0013 -17.3641
upperneck -26.3768 -16.7277 29.4718
head -2.8939 -9.22255 12.3351
rclavicle -7.31528e-014 -2.3059e-014
rhumerus 46.8212 43.84 -79.1606
rradius 29.967
rwrist -11.1506
rhand -32.1883 2.08355
rfingers 7.12502
rthumb -5.43054 -27.8269
lclavicle -7.31528e-014 -2.3059e-014
lhumerus -21.3809 -4.6218 85.2245
lradius 49.5267
lwrist 0.660667
lhand -31.1398 8.06788
lfingers 7.12502
lthumb -4.41809 38.0018
rfemur -1.55093 -20.8774 33.9382
rtibia 51.8427
rfoot 13.315 -3.62762
rtoes 3.09628
lfemur -76.1154 1.32366 -21.6956
ltibia 44.5773
lfoot 6.38224 -13.247
ltoes 13.142
464
root 1.58555 15.7075 8.31911 -154.383 -199.806 169.548
lowerback 35.3674 7.84574 3.17637
upperback 4.20932 11.1704 0.833547
thorax -12.6081 4.83047 -5.34068
lowerneck -0.0954342 -15.4202 -17.4137
upperneck -27.4548 -17.2662 29.8166
head -3.17836 -9.59482 12.5601
rclavicle 1.35174e-013 -1.35174e-014
rhumerus 44.7921 46.4919 -82.0645
rradius 28.1405
rwrist -8.40422
rhand -31.1943 0.392378
rfingers 7.12502
rthumb -4.47077 -29.5404
lclavicle 1.35174e-013 -1.35174e-014
lhumerus -21.7278 -4.38834 85.2238
lradius 49.0218
lwrist 0.50814
lhand -31.1194 8.06139
lfingers 7.12502
lthumb -4.39839 37.9957
rfemur -1.52734 -21.3122 34.1187
rtibia 50.8023
rfoot 14.1557 -2.91257
rtoes 3.67682
lfemur -76.9721 0.683287 -21.614
ltibia 44.0548
lfoot 6.43364 -14.0921
ltoes 13.3549
465
root 1.49732 15.7417 8.42371 -153.198 -201.462 169.835
lowerback 34.4422 7.96417 3.4012
upperback 4.09928 11.4662 1.28395
thorax -12.4061 4.98146 -5.01163
lowerneck 0.702613 -15.7892 -17.3736
upperneck -28.3749 -17.7439 30.1065
head -3.43327 -9.93137 12.7468
rclavicle -5.08889e-014 4.77083e-015
rhumerus 43.534 49.9753 -83.2589
rradius 27.0411
rwrist -6.47244
rhand -29.5553 -1.08086
rfingers 7.12502
rthumb -2.88798 -31.041
lclavicle -5.08889e-014 4.77083e-015
lhumerus -22.1226 -3.95227 84.9998
lradius 48.6044
lwrist 0.0794273
lhand -30.8647 8.14153
lfingers 7.12502
lthumb -4.15245 38.0808
rfemur -1.55136 -21.6993 34.2289
rtibia 49.9546
rfoot 14.8067 -2.50922
rtoes 4.23579
lfemur -77.7633 0.0334608 -21.7329
ltibia 43.4633
lfoot 6.52507 -15.0817
ltoes 13.7483
466
root 1.41239 15.7736 8.525 -152.061 -203.119 170.216
lowerback 33.5448 8.00388 3.6012
upperback 4.00608 11.641 1.69046
thorax -12.1946 5.08118 -4.668
lowerneck 1.39636 -16.1264 -17.279
upperneck -29.1471 -18.1834 30.3476
head -3.65 -10.2409 12.8955
rclavicle -4.77083e-014 9.54166e-015
rhumerus 43.1581 54.162 -82.8747
rradius 26.817
rwrist -5.90667
rhand -27.3715 -1.88731
rfingers 7.12502
rthumb -0.778895 -31.8656
lclavicle -4.77083e-014 9.54166e-015
lhumerus -22.5161 -3.33195 84.6031
lradius 48.2466
lwrist -0.580495
lhand -30.4422 8.25859
lfingers 7.12502
lthumb -3.74447 38.2054
rfemur -1.55368 -21.9855 34.2584
rtibia 49.2729
rfoot 15.2382 -2.41696
rtoes 4.5875
lfemur -78.4383 -0.608631 -21.9988
ltibia 42.8328
lfoot 6.64563 -16.162
ltoes 14.2898
467
root 1.33123 15.8044 8.6236 -151.046 -204.718 170.648
lowerback 32.7514 7.99729 3.78793
upperback 3.94993 11.7418 2.06292
thorax -11.9779 5.14834 -4.33103
lowerneck 1.9885 -16.4449 -17.1632
upperneck -29.7926 -18.6 30.5593
head -3.82506 -10.5306 13.0145
rclavicle -7.63333e-014 -1.43125e-014
rhumerus 43.7404 58.7658 -81.1296
rradius 27.4238
rwrist -6.76116
rhand -25.0652 -1.98863
rfingers 7.12502
rthumb 1.44863 -31.9635
lclavicle -7.63333e-014 -1.43125e-014
lhumerus -22.8885 -2.58022 84.0757
lradius 47.949
lwrist -1.3604
lhand -29.9332 8.40788
lfingers 7.12502
lthumb -3.2529 38.3628
rfemur -1.44094 -22.1113 34.1893
rtibia 48.722
rfoot 15.4612 -2.59293
rtoes 4.70399
lfemur -78.9347 -1.20589 -22.3533
ltibia 42.2019
lfoot 6.7708 -17.2784
ltoes 14.9064
468
root 1.25416 15.8349 8.71993 -150.197 -206.214 171.084
lowerback 32.105 7.9735 3.98305
upperback 3.929 11.8135 2.39202
thorax -11.768 5.2001 -4.044
lowerneck 2.52912 -16.7489 -17.0325
upperneck -30.3493 -18.9975 30.769
head -3.97172 -10.8083 13.1213
rclavicle -1.19271e-013 3.18055e-015
rhumerus 45.3525 63.4573 -78.2009
rradius 28.7032
rwrist -8.68947
rhand -23.1415 -1.56388
rfingers 7.12502
rthumb 3.30647 -31.518
lclavicle -1.19271e-013 3.18055e-015
lhumerus -23.2342 -1.77265 83.4397
lradius 47.7061
lwrist -2.12497
lhand -29.4301 8.54536
lfingers 7.12502
lthumb -2.76705 38.5072
rfemur -1.16681 -22.0163 34.0234
rtibia 48.2712
rfoot 15.5187 -2.98572
rtoes 4.66367
lfemur -79.2352 -1.73524 -22.7234
ltibia 41.607
lfoot 6.87904 -18.3626
ltoes 15.5194
469
root 1.18152 15.8659 8.81402 -149.536 -207.564 171.486
lowerback 31.6345 7.95266 4.19484
upperback 3.93113 11.8855 2.66242
thorax -11.586 5.24689 -3.84253
lowerneck 3.03623 -17.0388 -16.8773
upperneck -30.8275 -19.3739 30.9875
head -4.09584 -11.0763 13.2208
rclavicle -1.27222e-013 9.54166e-015
rhumerus 48.2002 68.0027 -74.0511
rradius 30.4819
rwrist -11.1154
rhand -22.0165 -0.965444
rfingers 7.12502
rthumb 4.39286 -30.8999
lclavicle -1.27222e-013 9.54166e-015
lhumerus -23.564 -0.967253 82.6993
lradius 47.5323
lwrist -2.74203
lhand -28.9991 8.67406
lfingers 7.12502
lthumb -2.35081 38.6409
rfemur -0.724521 -21.6549 33.7649
rtibia 47.904
rfoot 15.4793 -3.51139
rtoes 4.5659
lfemur -79.349 -2.18021 -23.0425
ltibia 41.0745
lfoot 6.95288 -19.3479
ltoes 16.0761
470
root 1.11337 15.8979 8.90601 -149.045 -208.736 171.826
lowerback 31.3157 7.95446 4.40724
upperback 3.94367 11.978 2.86689
thorax -11.4382 5.29805 -3.732
lowerneck 3.52327 -17.3127 -16.6924
upperneck -31.2347 -19.7249 31.2158
head -4.2033 -11.3339 13.3154
rclavicle -2.09917e-013 4.6118e-014
rhumerus 52.6701 72.2313 -68.3874
rradius 32.5739
rwrist -13.3471
rhand -21.95 -0.300148
rfingers 7.12502
rthumb 4.45707 -30.2333
lclavicle -2.09917e-013 4.6118e-014
lhumerus -23.8853 -0.195058 81.862
lradius 47.4227
lwrist -3.1136
lhand -28.7055 8.79771
lfingers 7.12502
lthumb -2.06733 38.7674
rfemur -0.158777 -20.9973 33.4324
rtibia 47.6217
rfoot 15.3978 -4.08097
rtoes 4.43195
lfemur -79.3192 -2.52865 -23.2642
ltibia 40.6141
lfoot 6.97685 -20.1933
ltoes 16.4901
471
root 1.05018 15.9311 8.99533 -148.676 -209.727 172.088
lowerback 30.9572 7.98493 4.61181
upperback 4.36557 12.0787 3.07676
thorax -11.5949 5.33877 -3.8025
lowerneck 3.97155 -17.575 -16.4653
upperneck -31.5509 -20.0535 31.4566
head -4.28525 -11.5828 13.3984
rclavicle 4.77083e-015 5.08889e-014
rhumerus 59.5582 76.0117 -60.4789
rradius 34.8107
rwrist -14.8361
rhand -22.7818 0.413244
rfingers 7.12502
rthumb 3.65379 -29.5352
lclavicle 4.77083e-015 5.08889e-014
lhumerus -24.2051 0.515611 80.9138
lradius 47.3731
lwrist -3.18568
lhand -28.5723 8.9092
lfingers 7.12502
lthumb -1.93863 38.8801
rfemur 0.438935 -20.0568 33.0556
rtibia 47.4386
rfoot 15.3544 -4.59373
rtoes 4.28436
lfemur -79.2146 -2.79247 -23.3556
ltibia 40.2215
lfoot 6.95034 -20.8755
ltoes 16.7276
472
root 0.991913 15.9655 9.08134 -148.379 -210.541 172.271
lowerback 30.7582 8.03295 4.82468
upperback 4.35846 12.2091 3.13485
thorax -11.4654 5.4017 -3.87078
lowerneck 4.38621 -17.8182 -16.2262
upperneck -31.8025 -20.3522 31.6983
head -4.35057 -11.8157 13.4749
rclavicle -2.70347e-014 -3.33958e-014
rhumerus 70.898 79.1954 -48.2454
rradius 37.0685
rwrist -15.3293
rhand -24.1948 1.27952
rfingers 7.12502
rthumb 2.2892 -28.6879
lclavicle -2.70347e-014 -3.33958e-014
lhumerus -24.5119 1.22237 79.9081
lradius 47.3708
lwrist -2.95498
lhand -28.5857 8.97373
lfingers 7.12502
lthumb -1.95156 38.9445
rfemur 0.981617 -18.8581 32.6552
rtibia 47.3756
rfoot 15.3889 -4.99091
rtoes 4.19568
lfemur -79.0931 -2.9859 -23.3062
ltibia 39.8806
lfoot 6.88896 -21.381
ltoes 16.8206
473
root 0.938471 16.0009 9.16365 -148.126 -211.19 172.379
lowerback 30.5292 8.10388 4.99442
upperback 4.35699 12.3452 3.15537
thorax -11.3126 5.47024 -3.95372
lowerneck 4.7503 -18.0339 -15.9998
upperneck -31.9871 -20.6127 31.933
head -4.39571 -12.0239 13.5439
rclavicle 1.62208e-013 -3.18055e-014
rhumerus 88.2377 81.4707 -30.139
rradius 39.2586
rwrist -14.5998
rhand -25.7862 2.41356
rfingers 7.12502
rthumb 0.752243 -27.5649
lclavicle 1.62208e-013 -3.18055e-014
lhumerus -24.8227 1.96349 78.8725
lradius 47.4268
lwrist -2.42772
lhand -28.724 9.11146
lfingers 7.12502
lthumb -2.08515 39.081
rfemur 1.42361 -17.4548 32.2344
rtibia 47.4471
rfoot 15.5287 -5.23483
rtoes 4.09324
lfemur -78.9787 -3.11598 -23.1349
ltibia 39.5725
lfoot 6.80629 -21.7239
ltoes 16.7892
474
root 0.889293 16.037 9.24172 -147.884 -211.698 172.427
lowerback 30.238 8.1909 5.10701
upperback 4.35771 12.475 3.14935
thorax -11.1315 5.54051 -4.02289
lowerneck 5.052 -18.2188 -15.8031
upperneck -32.1037 -20.833 32.1566
head -4.41715 -12.2033 13.6041
rclavicle 5.40694e-014 -3.65764e-014
rhumerus 110.861 82.5428 -6.83742
rradius 41.3678
rwrist -12.7781
rhand -27.1414 3.82069
rfingers 7.12502
rthumb -0.556616 -26.1583
lclavicle 5.40694e-014 -3.65764e-014
lhumerus -25.152 2.77382 77.8324
lradius 47.5426
lwrist -1.64499
lhand -28.9394 9.33612
lfingers 7.12502
lthumb -2.29317 39.3035
rfemur 1.72388 -15.8956 31.795
rtibia 47.6611
rfoot 15.773 -5.34728
rtoes 4.10293
lfemur -78.894 -3.20441 -22.8538
ltibia 39.2773
lfoot 6.72096 -21.9143
ltoes 16.6616
475
root 0.843564 16.0735 9.31526 -147.648 -212.089 172.428
lowerback 29.8799 8.28393 5.15404
upperback 4.36246 12.5852 3.1292
thorax -10.9236 5.60716 -4.05462
lowerneck 5.28617 -18.3672 -15.6451
upperneck -32.1527 -21.0082 32.3622
head -4.41511 -12.3492 13.6543
rclavicle -2.8625e-014 -7.31528e-014
rhumerus 132.945 82.5037 15.874
rradius 43.4149
rwrist -10.0815
rhand -28.021 5.58451
rfingers 7.12502
rthumb -1.40621 -24.3906
lclavicle -2.8625e-014 -7.31528e-014
lhumerus -25.5318 3.65957 76.796
lradius 47.7396
lwrist -0.616786
lhand -29.195 9.673
lfingers 7.12502
lthumb -2.54008 39.6376
rfemur 1.88264 -14.237 31.3329
rtibia 48.011
rfoot 16.1224 -5.36975
rtoes 4.35363
lfemur -78.8349 -3.26398 -22.4814
ltibia 38.9809
lfoot 6.64672 -21.9707
ltoes 16.4604
